<svg width="40.000000" height="40.000000" viewBox="0 0 40 40" fill="none" xmlns="http://www.w3.org/2000/svg" xmlns:xlink="http://www.w3.org/1999/xlink">
	<desc>
			Created with Pixso.
	</desc>
	<defs/>
	<rect id="back" rx="20.000000" width="40.000000" height="40.000000" fill="#FF3E79" fill-opacity="1.000000"/>
	<path id="icon" d="M21.5366 20L27.7432 26.2065C28.1333 26.5972 28.1333 27.2305 27.7432 27.6211L27.6211 27.7432C27.2305 28.1333 26.5972 28.1333 26.2065 27.7432L20 21.5366L13.7935 27.7432C13.4033 28.1333 12.77 28.1333 12.3794 27.7432L12.2573 27.6211C11.8667 27.2305 11.8667 26.5972 12.2573 26.2065L18.4639 20L12.2573 13.7935C11.8667 13.4033 11.8667 12.77 12.2573 12.3794L12.3794 12.2573C12.77 11.8667 13.4033 11.8667 13.7935 12.2573L20 18.4639L26.2065 12.2573C26.5972 11.8667 27.2305 11.8667 27.6211 12.2573L27.7432 12.3794C28.1333 12.77 28.1333 13.4033 27.7432 13.7935L21.5366 20Z" clip-rule="evenodd" fill="#FFFFFF" fill-opacity="1.000000" fill-rule="evenodd"/>
</svg>
